<?xml version="1.0" encoding="utf-8"?>
<!-- Generator: Adobe Illustrator 23.0.2, SVG Export Plug-In . SVG Version: 6.00 Build 0)  -->
<svg version="1.1" id="Layer_1" xmlns="http://www.w3.org/2000/svg" xmlns:xlink="http://www.w3.org/1999/xlink" x="0px" y="0px"
	 viewBox="0 0 2048 2048" style="enable-background:new 0 0 2048 2048;" xml:space="preserve">
<style type="text/css">
	.st0{fill:#465A65;}
	.st1{fill:#33444D;}
	.st2{fill:#BBECFF;}
	.st3{fill:#72B8CE;}
</style>
<g>
	<g>
		<path class="st0" d="M1165.27,995.84l590.78,590.78c48.1,48.1,47.87,126.59-1.77,173.1c-22.98,21.53-52.37,32.28-81.77,32.28
			c-30.63,0-61.25-11.67-84.62-35.05l-591.86-591.86L1165.27,995.84z"/>
		<path class="st1" d="M1531.93,1700.99l55.96,55.97c23.38,23.36,53.99,35.05,84.62,35.05c29.39,0,58.78-10.76,81.77-32.29
			c49.64-46.5,49.88-125,1.78-173.1l-54.87-54.87L1531.93,1700.99z"/>
	</g>
	<circle class="st1" cx="835.02" cy="834.83" r="578.83"/>
	<circle class="st2" cx="835.02" cy="834.83" r="442.59"/>
	<g>
		<path class="st3" d="M737.82,1010.73c-6.57,0-12.87-2.61-17.51-7.25L612.45,895.62c-9.67-9.67-9.67-25.36,0-35.03
			c9.67-9.67,25.35-9.67,35.03,0l90.34,90.34l284.74-284.74c9.67-9.67,25.35-9.67,35.03,0c9.67,9.67,9.67,25.36,0,35.03
			l-302.26,302.26C750.68,1008.12,744.38,1010.73,737.82,1010.73z"/>
	</g>
</g>
</svg>
